<svg xmlns="http://www.w3.org/2000/svg" xmlns:oryx="http://oryx-editor.org" id="_567078C7-EE00-4AE5-A633-E8413FD2869C" width="668" height="365" xmlns:xlink="http://www.w3.org/1999/xlink" xmlns:svg="http://www.w3.org/2000/svg"><defs><marker id="_19A9C496-044E-414E-B1F1-24B16EE8D6BAstart" refX="1" refY="5" markerUnits="userSpaceOnUse" markerWidth="17" markerHeight="11" orient="auto" fill="#000000" stroke="#000000"> 	  		<path id="_19A9C496-044E-414E-B1F1-24B16EE8D6BAconditional" d="M 0 5 L 8 0 L 16 5 L 8 10 L 0 5" fill="white" stroke="#000000" stroke-width="1" display="none"/> 			<path id="_19A9C496-044E-414E-B1F1-24B16EE8D6BAdefault" d="M 5 0 L 11 10" fill="white" stroke="#000000" stroke-width="1" display="none"/> 	  	</marker><marker id="_19A9C496-044E-414E-B1F1-24B16EE8D6BAend" refX="15" refY="6" markerUnits="userSpaceOnUse" markerWidth="15" markerHeight="12" orient="auto" fill="#000000" stroke="#000000"> 	  		<path id="_19A9C496-044E-414E-B1F1-24B16EE8D6BAframe2" d="M 0 1 L 15 6 L 0 11z" fill="#000000" stroke="#000000" stroke-linejoin="round" stroke-width="2"/> 	  	</marker><marker id="_5BC44E84-A961-41EF-A256-75E234815337start" refX="1" refY="5" markerUnits="userSpaceOnUse" markerWidth="17" markerHeight="11" orient="auto" fill="#000000" stroke="#000000"> 	  		<path id="_5BC44E84-A961-41EF-A256-75E234815337conditional" d="M 0 5 L 8 0 L 16 5 L 8 10 L 0 5" fill="white" stroke="#000000" stroke-width="1" display="none"/> 			<path id="_5BC44E84-A961-41EF-A256-75E234815337default" d="M 5 0 L 11 10" fill="white" stroke="#000000" stroke-width="1" display="none"/> 	  	</marker><marker id="_5BC44E84-A961-41EF-A256-75E234815337end" refX="15" refY="6" markerUnits="userSpaceOnUse" markerWidth="15" markerHeight="12" orient="auto" fill="#000000" stroke="#000000"> 	  		<path id="_5BC44E84-A961-41EF-A256-75E234815337frame2" d="M 0 1 L 15 6 L 0 11z" fill="#000000" stroke="#000000" stroke-linejoin="round" stroke-width="2"/> 	  	</marker><marker id="_95A38BDF-900A-4115-AEC6-5967F95EE48Astart" refX="1" refY="5" markerUnits="userSpaceOnUse" markerWidth="17" markerHeight="11" orient="auto" fill="#000000" stroke="#000000"> 	  		<path id="_95A38BDF-900A-4115-AEC6-5967F95EE48Aconditional" d="M 0 5 L 8 0 L 16 5 L 8 10 L 0 5" fill="white" stroke="#000000" stroke-width="1" display="none"/> 			<path id="_95A38BDF-900A-4115-AEC6-5967F95EE48Adefault" d="M 5 0 L 11 10" fill="white" stroke="#000000" stroke-width="1" display="none"/> 	  	</marker><marker id="_95A38BDF-900A-4115-AEC6-5967F95EE48Aend" refX="15" refY="6" markerUnits="userSpaceOnUse" markerWidth="15" markerHeight="12" orient="auto" fill="#000000" stroke="#000000"> 	  		<path id="_95A38BDF-900A-4115-AEC6-5967F95EE48Aframe2" d="M 0 1 L 15 6 L 0 11z" fill="#000000" stroke="#000000" stroke-linejoin="round" stroke-width="2"/> 	  	</marker><marker id="_9E9238E2-9C46-4729-BE71-D263A7B91F8Fstart" refX="1" refY="5" markerUnits="userSpaceOnUse" markerWidth="17" markerHeight="11" orient="auto" fill="#000000" stroke="#000000"> 	  		<path id="_9E9238E2-9C46-4729-BE71-D263A7B91F8Fconditional" d="M 0 5 L 8 0 L 16 5 L 8 10 L 0 5" fill="white" stroke="#000000" stroke-width="1" display="none"/> 			<path id="_9E9238E2-9C46-4729-BE71-D263A7B91F8Fdefault" d="M 5 0 L 11 10" fill="white" stroke="#000000" stroke-width="1" display="none"/> 	  	</marker><marker id="_9E9238E2-9C46-4729-BE71-D263A7B91F8Fend" refX="15" refY="6" markerUnits="userSpaceOnUse" markerWidth="15" markerHeight="12" orient="auto" fill="#000000" stroke="#000000"> 	  		<path id="_9E9238E2-9C46-4729-BE71-D263A7B91F8Fframe2" d="M 0 1 L 15 6 L 0 11z" fill="#000000" stroke="#000000" stroke-linejoin="round" stroke-width="2"/> 	  	</marker><marker id="_FD305C42-AFD5-4BCD-B5FB-FDEFD09CB692start" refX="1" refY="5" markerUnits="userSpaceOnUse" markerWidth="17" markerHeight="11" orient="auto" fill="#000000" stroke="#000000"> 	  		<path id="_FD305C42-AFD5-4BCD-B5FB-FDEFD09CB692conditional" d="M 0 5 L 8 0 L 16 5 L 8 10 L 0 5" fill="white" stroke="#000000" stroke-width="1" display="none"/> 			<path id="_FD305C42-AFD5-4BCD-B5FB-FDEFD09CB692default" d="M 5 0 L 11 10" fill="white" stroke="#000000" stroke-width="1" display="none"/> 	  	</marker><marker id="_FD305C42-AFD5-4BCD-B5FB-FDEFD09CB692end" refX="15" refY="6" markerUnits="userSpaceOnUse" markerWidth="15" markerHeight="12" orient="auto" fill="#000000" stroke="#000000"> 	  		<path id="_FD305C42-AFD5-4BCD-B5FB-FDEFD09CB692frame2" d="M 0 1 L 15 6 L 0 11z" fill="#000000" stroke="#000000" stroke-linejoin="round" stroke-width="2"/> 	  	</marker><marker id="_45647243-0B6B-4C1B-B5CC-25C6D5C2EEB2start" refX="1" refY="5" markerUnits="userSpaceOnUse" markerWidth="17" markerHeight="11" orient="auto" fill="#000000" stroke="#000000"> 	  		<path id="_45647243-0B6B-4C1B-B5CC-25C6D5C2EEB2conditional" d="M 0 5 L 8 0 L 16 5 L 8 10 L 0 5" fill="white" stroke="#000000" stroke-width="1" display="none"/> 			<path id="_45647243-0B6B-4C1B-B5CC-25C6D5C2EEB2default" d="M 5 0 L 11 10" fill="white" stroke="#000000" stroke-width="1" display="none"/> 	  	</marker><marker id="_45647243-0B6B-4C1B-B5CC-25C6D5C2EEB2end" refX="15" refY="6" markerUnits="userSpaceOnUse" markerWidth="15" markerHeight="12" orient="auto" fill="#000000" stroke="#000000"> 	  		<path id="_45647243-0B6B-4C1B-B5CC-25C6D5C2EEB2frame2" d="M 0 1 L 15 6 L 0 11z" fill="#000000" stroke="#000000" stroke-linejoin="round" stroke-width="2"/> 	  	</marker></defs><g stroke="none" font-family="Verdana, sans-serif" font-size-adjust="none" font-style="normal" font-variant="normal" font-weight="normal" line-heigth="normal" font-size="12"><g class="stencils" transform="translate(15, 16)"><g class="me"/><g class="children"><g id="_862D6050-1304-455A-9045-3C595D337F3D" bpmn2nodeid="processStartEvent"><g class="stencils" transform="translate(120, 195)"><g class="me"><g pointer-events="fill" id="_862D6050-1304-455A-9045-3C595D337F3D">        <defs id="_862D6050-1304-455A-9045-3C595D337F3D__862D6050-1304-455A-9045-3C595D337F3D_5"> 		<radialGradient id="_862D6050-1304-455A-9045-3C595D337F3Dbackground" cx="10%" cy="10%" r="100%" fx="10%" fy="10%"> 			<stop offset="0%" stop-color="#ffffff" stop-opacity="1" id="_862D6050-1304-455A-9045-3C595D337F3D__862D6050-1304-455A-9045-3C595D337F3D_6"/> 			<stop id="_862D6050-1304-455A-9045-3C595D337F3Dfill_el" offset="100%" stop-color="#9acd32" stop-opacity="1"/> 		</radialGradient> 	</defs> 	     <circle id="_862D6050-1304-455A-9045-3C595D337F3Dbg_frame" cx="15" cy="15" r="15" stroke="#000000" fill="url(#_862D6050-1304-455A-9045-3C595D337F3Dbackground) white" stroke-width="1" style="stroke-dasharray: 5.5, 3"/>      <circle id="_862D6050-1304-455A-9045-3C595D337F3Dframe" cx="15" cy="15" r="15" stroke="#000000" fill="none" stroke-width="1" display="inherit"/>  	<text font-size="11" id="_862D6050-1304-455A-9045-3C595D337F3Dtext_name" x="15" y="32" oryx:align="top center" stroke="black" stroke-width="0pt" letter-spacing="-0.01px" fill="#000000" text-anchor="middle" transform="rotate(0 15 32)" visibility="inherit" oryx:fontSize="11"/>   </g></g><g class="children" style="overflow:hidden"/><g class="edge"/></g><g class="controls"><g class="dockers"/><g class="magnets" transform="translate(120, 195)"><g pointer-events="all" display="none" transform="translate(7, 7)"><circle cx="8" cy="8" r="4" stroke="none" fill="red" fill-opacity="0.3"/></g></g></g></g><g id="_B1E190B3-1AE6-45DE-8185-79F3F71A2EBC" bpmn2nodeid="_CF97BAD1-59F3-4C45-9053-781C7CFD0957"><g class="stencils" transform="translate(315, 95)"><g class="me"><g pointer-events="fill" oryx:minimumSize="50 40" id="_B1E190B3-1AE6-45DE-8185-79F3F71A2EBC">   	<defs id="_B1E190B3-1AE6-45DE-8185-79F3F71A2EBC__B1E190B3-1AE6-45DE-8185-79F3F71A2EBC_17"> 		<radialGradient id="_B1E190B3-1AE6-45DE-8185-79F3F71A2EBCbackground" cx="10%" cy="10%" r="100%" fx="10%" fy="10%"> 			<stop offset="0%" stop-color="#ffffff" stop-opacity="1" id="_B1E190B3-1AE6-45DE-8185-79F3F71A2EBC__B1E190B3-1AE6-45DE-8185-79F3F71A2EBC_18"/> 			<stop id="_B1E190B3-1AE6-45DE-8185-79F3F71A2EBCfill_el" offset="100%" stop-color="#fafad2" stop-opacity="1"/> 		</radialGradient> 		<radialGradient id="_B1E190B3-1AE6-45DE-8185-79F3F71A2EBCborderbackground" cx="10%" cy="10%" r="100%" fx="10%" fy="10%"> 			<stop offset="0%" stop-color="#ffffff" stop-opacity="1" id="_B1E190B3-1AE6-45DE-8185-79F3F71A2EBC__B1E190B3-1AE6-45DE-8185-79F3F71A2EBC_19"/> 			<stop id="_B1E190B3-1AE6-45DE-8185-79F3F71A2EBCfill_border" offset="100%" stop-color="#000000" stop-opacity="1" stroke="#000000"/> 		</radialGradient> 	</defs> 	 	<rect id="_B1E190B3-1AE6-45DE-8185-79F3F71A2EBCtext_frame" oryx:anchors="bottom top right left" x="1" y="1" width="94" height="79" rx="10" ry="10" stroke="none" stroke-width="0" fill="none"/> 	<rect id="_B1E190B3-1AE6-45DE-8185-79F3F71A2EBCbg_frame" oryx:resize="vertical horizontal" x="0" y="0" width="100" height="80" rx="10" ry="10" stroke="#000000" stroke-width="1" fill="url(#_B1E190B3-1AE6-45DE-8185-79F3F71A2EBCbackground) #ffffcc"/> 		<text font-size="12" id="_B1E190B3-1AE6-45DE-8185-79F3F71A2EBCtext_name" x="50" y="40" oryx:align="middle center" oryx:fittoelem="text_frame" stroke="black" text-anchor="middle" stroke-width="0pt" letter-spacing="-0.01px" fill="#000000" transform="rotate(0 50 40)" visibility="inherit" oryx:fontSize="12"><tspan x="50" y="40" dy="5" id="ext-gen676">Calcular1</tspan></text>     <g id="_B1E190B3-1AE6-45DE-8185-79F3F71A2EBCmanualTask" transform="scale(0.7,0.7) translate(8,8)" display="none">     	<path oryx:anchors="top left" id="_B1E190B3-1AE6-45DE-8185-79F3F71A2EBCframe" style="opacity:1;fill:none;fill-opacity:1;stroke-width:1" d="M0.5,3.751l4.083-3.25c0,0,11.166,0.083,12.083,0.083s-2.417,2.917-1.5,2.917     s11.667,0,12.584,0c1.166,1.708-0.168,3.167-0.834,3.667s0.875,1.917-1,4.417c-0.75,0.25,0.75,1.875-1.333,3.333     c-1.167,0.583,0.583,1.542-1.25,2.833c-1.167,0-20.833,0.083-20.833,0.083l-2-1.333V3.751z" stroke="#000000"/> 		<path id="_B1E190B3-1AE6-45DE-8185-79F3F71A2EBCframe2" oryx:anchors="top left" style="opacity:1;fill:none;stroke-width:2" d="M 13.5 7 L 27 7" stroke="#000000"/> 		<path id="_B1E190B3-1AE6-45DE-8185-79F3F71A2EBCframe3" oryx:anchors="top left" style="opacity:1;fill:none;stroke-width:2" d="M 13.5 11 L 26 11" stroke="#000000"/> 		<path id="_B1E190B3-1AE6-45DE-8185-79F3F71A2EBCframe4" oryx:anchors="top left" style="opacity:1;fill:none;stroke-width:1.5" d="M 14 14.5 L 25 14.5" stroke="#000000"/> 		<path id="_B1E190B3-1AE6-45DE-8185-79F3F71A2EBCframe5" oryx:anchors="top left" style="opacity:1;fill:none;stroke-width:1.5" d="M 8.2 3.1 L 15 3.1" stroke="#000000"/> 	</g> 	 	<g id="_B1E190B3-1AE6-45DE-8185-79F3F71A2EBCbusinessRuleTask" transform="scale(0.7,0.7) translate(8,8)" display="inherit"> 		<rect id="_B1E190B3-1AE6-45DE-8185-79F3F71A2EBCframe6" oryx:anchors="top left" x="0" y="0" width="22" height="4" style="opacity:1;fill:#B3B1B3;fill-opacity:1;" stroke="#000000"/> 		<rect id="_B1E190B3-1AE6-45DE-8185-79F3F71A2EBCframe7" oryx:anchors="top left" x="0" y="4" style="opacity:1;fill:none;" width="22" height="12" stroke="#000000"/> 		<path id="_B1E190B3-1AE6-45DE-8185-79F3F71A2EBCframe8" oryx:anchors="top left" style="opacity:1;fill:none;" d="M 0 10 L 22 10" stroke="#000000"/> 		<path id="_B1E190B3-1AE6-45DE-8185-79F3F71A2EBCframe9" oryx:anchors="top left" style="opacity:1; fill:none;" d="M 7 4 L 7 16" stroke="#000000"/> 	</g> 	 	<g id="_B1E190B3-1AE6-45DE-8185-79F3F71A2EBCscriptTask" transform="scale(0.7,0.7) translate(8,8)" display="none"> 		<path oryx:anchors="top left" id="_B1E190B3-1AE6-45DE-8185-79F3F71A2EBCframe10" style="opacity:1;fill:none;" stroke="#000000" d="M6.402,0.5h14.5c0,0-5.833,2.833-5.833,5.583s4.417,6,4.417,9.167    s-4.167,5.083-4.167,5.083H0.235c0,0,5-2.667,5-5s-4.583-6.75-4.583-9.25S6.402,0.5,6.402,0.5z"/> 		<path oryx:anchors="top left" id="_B1E190B3-1AE6-45DE-8185-79F3F71A2EBCframe11" style="opacity:1;fill:none;stroke-width:1.5" d="M 3.5 4.5 L 13.5 4.5" stroke="#000000"/> 		<path oryx:anchors="top left" id="_B1E190B3-1AE6-45DE-8185-79F3F71A2EBCframe12" style="opacity:1;fill:none;stroke-width:1.5" d="M 3.8 8.5 L 13.8 8.5" stroke="#000000"/> 		<path oryx:anchors="top left" id="_B1E190B3-1AE6-45DE-8185-79F3F71A2EBCframe13" style="opacity:1;fill:none;stroke-width:1.5" d="M 6.3 12.5 L 16.3 12.5" stroke="#000000"/> 		<path oryx:anchors="top left" id="_B1E190B3-1AE6-45DE-8185-79F3F71A2EBCframe14" style="opacity:1;fill:none;stroke-width:1.5" d="M 6.5 16.5 L 16.5 16.5" stroke="#000000"/> 	</g> 	 	<g id="_B1E190B3-1AE6-45DE-8185-79F3F71A2EBCuserTask" transform="scale(0.7,0.7) translate(8,8)" display="none"> 		<path id="_B1E190B3-1AE6-45DE-8185-79F3F71A2EBCframe15" oryx:anchors="top left" style="opacity:1;fill:#F4F6F7" stroke="#000000" d="M0.585,24.167h24.083v-7.833c0,0-2.333-3.917-7.083-5.167h-9.25    c-4.417,1.333-7.833,5.75-7.833,5.75L0.585,24.167z"/> 		<path id="_B1E190B3-1AE6-45DE-8185-79F3F71A2EBCframe16" oryx:anchors="top left" style="opacity:1;fill:none" d="M 6 20 L 6 24" stroke="#000000"/> 		<path id="_B1E190B3-1AE6-45DE-8185-79F3F71A2EBCframe17" oryx:anchors="top left" style="opacity:1;fill:none" d="M 20 20 L 20 24" stroke="#000000"/> 		<circle id="_B1E190B3-1AE6-45DE-8185-79F3F71A2EBCframe18" oryx:anchors="top left" fill="black" cx="13.002" cy="5.916" r="5.417" stroke="#000000"/> 		<path id="_B1E190B3-1AE6-45DE-8185-79F3F71A2EBCframe19" oryx:anchors="top left" style="opacity:1;fill:#F0EFF0;" stroke="#000000" d="M8.043,7.083c0,0,2.814-2.426,5.376-1.807s4.624-0.693,4.624-0.693    c0.25,1.688,0.042,3.75-1.458,5.584c0,0,1.083,0.75,1.083,1.5s0.125,1.875-1,3s-5.5,1.25-6.75,0S8.668,12.834,8.668,12    s0.583-1.25,1.25-1.917C8.835,9.5,7.419,7.708,8.043,7.083z"/> 	</g> 	 	<g id="_B1E190B3-1AE6-45DE-8185-79F3F71A2EBCserviceTask" transform="scale(0.7,0.7) translate(8,8)" display="none"> 		<polygon oryx:anchors="top left" id="_B1E190B3-1AE6-45DE-8185-79F3F71A2EBCframe20" style="opacity:1;fill:#ffffff" stroke="#000000" points="15.392,5.064 17.954,2.502 20.347,4.895 17.786,7.455     18.729,9.732 22.353,9.732 22.353,13.115 18.731,13.115 17.788,15.392 20.351,17.955 17.958,20.347 15.397,17.786 13.12,18.729     13.12,22.353 9.737,22.353 9.737,18.731 7.46,17.788 4.897,20.35 2.506,17.958 5.066,15.397 4.124,13.12 0.5,13.12 0.5,9.737     4.121,9.737 5.065,7.461 2.503,4.898 4.895,2.506 7.455,5.066 9.732,4.125 9.732,0.5 13.116,0.5 13.116,4.121 "/> 		<circle oryx:anchors="top left" id="_B1E190B3-1AE6-45DE-8185-79F3F71A2EBCframe21" style="opacity:1;fill:none" stroke="#000000" cx="11.427" cy="11.426" r="3.714"/> 		<polygon oryx:anchors="top left" id="_B1E190B3-1AE6-45DE-8185-79F3F71A2EBCframe22" style="opacity:1;fill:#ffffff" stroke="#000000" points="21.392,11.064 23.954,8.502 26.347,10.895 23.786,13.455     24.729,15.732 28.353,15.732 28.353,19.115 24.731,19.115 23.788,21.392 26.351,23.955 23.958,26.347 21.397,23.786 19.12,24.729     19.12,28.353 15.737,28.353 15.737,24.731 13.46,23.788 10.897,26.35 8.506,23.958 11.066,21.397 10.124,19.12 6.5,19.12     6.5,15.737 10.121,15.737 11.065,13.461 8.503,10.898 10.895,8.506 13.455,11.066 15.732,10.125 15.732,6.5 19.116,6.5     19.116,10.121 "/> 		<circle oryx:anchors="top left" id="_B1E190B3-1AE6-45DE-8185-79F3F71A2EBCframe23" style="opacity:1;fill:none;" stroke="#000000" cx="17.427" cy="17.426" r="3.714"/> 	</g> 	 	<g id="_B1E190B3-1AE6-45DE-8185-79F3F71A2EBCsendTask" display="none"> 		<path id="_B1E190B3-1AE6-45DE-8185-79F3F71A2EBCstframe24" oryx:anchors="left top" stroke="#FFFFFF" fill="black" stroke-width="1" d="M8,11 L8,21 L24,21 L24,11 L16,17z"/> 		<path id="_B1E190B3-1AE6-45DE-8185-79F3F71A2EBCstframe25" oryx:anchors="left top" stroke="#FFFFFF" fill="black" stroke-width="1" d="M7,10 L16,17 L25 10z"/> 	</g> 	 	<g id="_B1E190B3-1AE6-45DE-8185-79F3F71A2EBCreceiveTask" display="none"> 		<path id="_B1E190B3-1AE6-45DE-8185-79F3F71A2EBCframe26" oryx:anchors="left top" stroke="#000000" fill="none" stroke-width="1" d="M8,11 L8,21 L24,21 L24,11z M8,11 L16,17 L24,11"/> 	</g> 	 	<g id="_B1E190B3-1AE6-45DE-8185-79F3F71A2EBCnone" display="inherit"/>  	<g id="_B1E190B3-1AE6-45DE-8185-79F3F71A2EBCsequential" display="none">         <path oryx:anchors="bottom" fill="none" stroke="#000000" stroke-width="2" d="M46,76h10M46,72h10 M46,68h10" id="_B1E190B3-1AE6-45DE-8185-79F3F71A2EBC__B1E190B3-1AE6-45DE-8185-79F3F71A2EBC_20"/>     </g>   </g></g><g class="children" style="overflow:hidden"/><g class="edge"/></g><g class="controls"><g class="dockers"/><g class="magnets" transform="translate(315, 95)"><g pointer-events="all" display="none" transform="translate(-7, 12)"><circle cx="8" cy="8" r="4" stroke="none" fill="red" fill-opacity="0.3"/></g><g pointer-events="all" display="none" transform="translate(-7, 32)"><circle cx="8" cy="8" r="4" stroke="none" fill="red" fill-opacity="0.3"/></g><g pointer-events="all" display="none" transform="translate(-7, 52)"><circle cx="8" cy="8" r="4" stroke="none" fill="red" fill-opacity="0.3"/></g><g pointer-events="all" display="none" transform="translate(17, 71)"><circle cx="8" cy="8" r="4" stroke="none" fill="red" fill-opacity="0.3"/></g><g pointer-events="all" display="none" transform="translate(42, 71)"><circle cx="8" cy="8" r="4" stroke="none" fill="red" fill-opacity="0.3"/></g><g pointer-events="all" display="none" transform="translate(67, 71)"><circle cx="8" cy="8" r="4" stroke="none" fill="red" fill-opacity="0.3"/></g><g pointer-events="all" display="none" transform="translate(91, 12)"><circle cx="8" cy="8" r="4" stroke="none" fill="red" fill-opacity="0.3"/></g><g pointer-events="all" display="none" transform="translate(91, 32)"><circle cx="8" cy="8" r="4" stroke="none" fill="red" fill-opacity="0.3"/></g><g pointer-events="all" display="none" transform="translate(91, 52)"><circle cx="8" cy="8" r="4" stroke="none" fill="red" fill-opacity="0.3"/></g><g pointer-events="all" display="none" transform="translate(17, -7)"><circle cx="8" cy="8" r="4" stroke="none" fill="red" fill-opacity="0.3"/></g><g pointer-events="all" display="none" transform="translate(42, -7)"><circle cx="8" cy="8" r="4" stroke="none" fill="red" fill-opacity="0.3"/></g><g pointer-events="all" display="none" transform="translate(67, -7)"><circle cx="8" cy="8" r="4" stroke="none" fill="red" fill-opacity="0.3"/></g><g pointer-events="all" display="none" transform="translate(42, 32)"><circle cx="8" cy="8" r="4" stroke="none" fill="red" fill-opacity="0.3"/></g></g></g></g><g id="_6DFF9564-4E82-4CD7-880C-127D34EC7711" bpmn2nodeid="_AE7120CE-F29A-4CB7-9BEA-58D164B98E61"><g class="stencils" transform="translate(315, 240)"><g class="me"><g pointer-events="fill" oryx:minimumSize="50 40" id="_6DFF9564-4E82-4CD7-880C-127D34EC7711">   	<defs id="_6DFF9564-4E82-4CD7-880C-127D34EC7711__6DFF9564-4E82-4CD7-880C-127D34EC7711_17"> 		<radialGradient id="_6DFF9564-4E82-4CD7-880C-127D34EC7711background" cx="10%" cy="10%" r="100%" fx="10%" fy="10%"> 			<stop offset="0%" stop-color="#ffffff" stop-opacity="1" id="_6DFF9564-4E82-4CD7-880C-127D34EC7711__6DFF9564-4E82-4CD7-880C-127D34EC7711_18"/> 			<stop id="_6DFF9564-4E82-4CD7-880C-127D34EC7711fill_el" offset="100%" stop-color="#fafad2" stop-opacity="1"/> 		</radialGradient> 		<radialGradient id="_6DFF9564-4E82-4CD7-880C-127D34EC7711borderbackground" cx="10%" cy="10%" r="100%" fx="10%" fy="10%"> 			<stop offset="0%" stop-color="#ffffff" stop-opacity="1" id="_6DFF9564-4E82-4CD7-880C-127D34EC7711__6DFF9564-4E82-4CD7-880C-127D34EC7711_19"/> 			<stop id="_6DFF9564-4E82-4CD7-880C-127D34EC7711fill_border" offset="100%" stop-color="#000000" stop-opacity="1" stroke="#000000"/> 		</radialGradient> 	</defs> 	 	<rect id="_6DFF9564-4E82-4CD7-880C-127D34EC7711text_frame" oryx:anchors="bottom top right left" x="1" y="1" width="94" height="79" rx="10" ry="10" stroke="none" stroke-width="0" fill="none"/> 	<rect id="_6DFF9564-4E82-4CD7-880C-127D34EC7711bg_frame" oryx:resize="vertical horizontal" x="0" y="0" width="100" height="80" rx="10" ry="10" stroke="#000000" stroke-width="1" fill="url(#_6DFF9564-4E82-4CD7-880C-127D34EC7711background) #ffffcc"/> 		<text font-size="12" id="_6DFF9564-4E82-4CD7-880C-127D34EC7711text_name" x="50" y="40" oryx:align="middle center" oryx:fittoelem="text_frame" stroke="black" text-anchor="middle" stroke-width="0pt" letter-spacing="-0.01px" fill="#000000" transform="rotate(0 50 40)" visibility="inherit" oryx:fontSize="12"><tspan x="50" y="40" dy="5" id="ext-gen746">Calcular2</tspan></text>     <g id="_6DFF9564-4E82-4CD7-880C-127D34EC7711manualTask" transform="scale(0.7,0.7) translate(8,8)" display="none">     	<path oryx:anchors="top left" id="_6DFF9564-4E82-4CD7-880C-127D34EC7711frame" style="opacity:1;fill:none;fill-opacity:1;stroke-width:1" d="M0.5,3.751l4.083-3.25c0,0,11.166,0.083,12.083,0.083s-2.417,2.917-1.5,2.917     s11.667,0,12.584,0c1.166,1.708-0.168,3.167-0.834,3.667s0.875,1.917-1,4.417c-0.75,0.25,0.75,1.875-1.333,3.333     c-1.167,0.583,0.583,1.542-1.25,2.833c-1.167,0-20.833,0.083-20.833,0.083l-2-1.333V3.751z" stroke="#000000"/> 		<path id="_6DFF9564-4E82-4CD7-880C-127D34EC7711frame2" oryx:anchors="top left" style="opacity:1;fill:none;stroke-width:2" d="M 13.5 7 L 27 7" stroke="#000000"/> 		<path id="_6DFF9564-4E82-4CD7-880C-127D34EC7711frame3" oryx:anchors="top left" style="opacity:1;fill:none;stroke-width:2" d="M 13.5 11 L 26 11" stroke="#000000"/> 		<path id="_6DFF9564-4E82-4CD7-880C-127D34EC7711frame4" oryx:anchors="top left" style="opacity:1;fill:none;stroke-width:1.5" d="M 14 14.5 L 25 14.5" stroke="#000000"/> 		<path id="_6DFF9564-4E82-4CD7-880C-127D34EC7711frame5" oryx:anchors="top left" style="opacity:1;fill:none;stroke-width:1.5" d="M 8.2 3.1 L 15 3.1" stroke="#000000"/> 	</g> 	 	<g id="_6DFF9564-4E82-4CD7-880C-127D34EC7711businessRuleTask" transform="scale(0.7,0.7) translate(8,8)" display="inherit"> 		<rect id="_6DFF9564-4E82-4CD7-880C-127D34EC7711frame6" oryx:anchors="top left" x="0" y="0" width="22" height="4" style="opacity:1;fill:#B3B1B3;fill-opacity:1;" stroke="#000000"/> 		<rect id="_6DFF9564-4E82-4CD7-880C-127D34EC7711frame7" oryx:anchors="top left" x="0" y="4" style="opacity:1;fill:none;" width="22" height="12" stroke="#000000"/> 		<path id="_6DFF9564-4E82-4CD7-880C-127D34EC7711frame8" oryx:anchors="top left" style="opacity:1;fill:none;" d="M 0 10 L 22 10" stroke="#000000"/> 		<path id="_6DFF9564-4E82-4CD7-880C-127D34EC7711frame9" oryx:anchors="top left" style="opacity:1; fill:none;" d="M 7 4 L 7 16" stroke="#000000"/> 	</g> 	 	<g id="_6DFF9564-4E82-4CD7-880C-127D34EC7711scriptTask" transform="scale(0.7,0.7) translate(8,8)" display="none"> 		<path oryx:anchors="top left" id="_6DFF9564-4E82-4CD7-880C-127D34EC7711frame10" style="opacity:1;fill:none;" stroke="#000000" d="M6.402,0.5h14.5c0,0-5.833,2.833-5.833,5.583s4.417,6,4.417,9.167    s-4.167,5.083-4.167,5.083H0.235c0,0,5-2.667,5-5s-4.583-6.75-4.583-9.25S6.402,0.5,6.402,0.5z"/> 		<path oryx:anchors="top left" id="_6DFF9564-4E82-4CD7-880C-127D34EC7711frame11" style="opacity:1;fill:none;stroke-width:1.5" d="M 3.5 4.5 L 13.5 4.5" stroke="#000000"/> 		<path oryx:anchors="top left" id="_6DFF9564-4E82-4CD7-880C-127D34EC7711frame12" style="opacity:1;fill:none;stroke-width:1.5" d="M 3.8 8.5 L 13.8 8.5" stroke="#000000"/> 		<path oryx:anchors="top left" id="_6DFF9564-4E82-4CD7-880C-127D34EC7711frame13" style="opacity:1;fill:none;stroke-width:1.5" d="M 6.3 12.5 L 16.3 12.5" stroke="#000000"/> 		<path oryx:anchors="top left" id="_6DFF9564-4E82-4CD7-880C-127D34EC7711frame14" style="opacity:1;fill:none;stroke-width:1.5" d="M 6.5 16.5 L 16.5 16.5" stroke="#000000"/> 	</g> 	 	<g id="_6DFF9564-4E82-4CD7-880C-127D34EC7711userTask" transform="scale(0.7,0.7) translate(8,8)" display="none"> 		<path id="_6DFF9564-4E82-4CD7-880C-127D34EC7711frame15" oryx:anchors="top left" style="opacity:1;fill:#F4F6F7" stroke="#000000" d="M0.585,24.167h24.083v-7.833c0,0-2.333-3.917-7.083-5.167h-9.25    c-4.417,1.333-7.833,5.75-7.833,5.75L0.585,24.167z"/> 		<path id="_6DFF9564-4E82-4CD7-880C-127D34EC7711frame16" oryx:anchors="top left" style="opacity:1;fill:none" d="M 6 20 L 6 24" stroke="#000000"/> 		<path id="_6DFF9564-4E82-4CD7-880C-127D34EC7711frame17" oryx:anchors="top left" style="opacity:1;fill:none" d="M 20 20 L 20 24" stroke="#000000"/> 		<circle id="_6DFF9564-4E82-4CD7-880C-127D34EC7711frame18" oryx:anchors="top left" fill="black" cx="13.002" cy="5.916" r="5.417" stroke="#000000"/> 		<path id="_6DFF9564-4E82-4CD7-880C-127D34EC7711frame19" oryx:anchors="top left" style="opacity:1;fill:#F0EFF0;" stroke="#000000" d="M8.043,7.083c0,0,2.814-2.426,5.376-1.807s4.624-0.693,4.624-0.693    c0.25,1.688,0.042,3.75-1.458,5.584c0,0,1.083,0.75,1.083,1.5s0.125,1.875-1,3s-5.5,1.25-6.75,0S8.668,12.834,8.668,12    s0.583-1.25,1.25-1.917C8.835,9.5,7.419,7.708,8.043,7.083z"/> 	</g> 	 	<g id="_6DFF9564-4E82-4CD7-880C-127D34EC7711serviceTask" transform="scale(0.7,0.7) translate(8,8)" display="none"> 		<polygon oryx:anchors="top left" id="_6DFF9564-4E82-4CD7-880C-127D34EC7711frame20" style="opacity:1;fill:#ffffff" stroke="#000000" points="15.392,5.064 17.954,2.502 20.347,4.895 17.786,7.455     18.729,9.732 22.353,9.732 22.353,13.115 18.731,13.115 17.788,15.392 20.351,17.955 17.958,20.347 15.397,17.786 13.12,18.729     13.12,22.353 9.737,22.353 9.737,18.731 7.46,17.788 4.897,20.35 2.506,17.958 5.066,15.397 4.124,13.12 0.5,13.12 0.5,9.737     4.121,9.737 5.065,7.461 2.503,4.898 4.895,2.506 7.455,5.066 9.732,4.125 9.732,0.5 13.116,0.5 13.116,4.121 "/> 		<circle oryx:anchors="top left" id="_6DFF9564-4E82-4CD7-880C-127D34EC7711frame21" style="opacity:1;fill:none" stroke="#000000" cx="11.427" cy="11.426" r="3.714"/> 		<polygon oryx:anchors="top left" id="_6DFF9564-4E82-4CD7-880C-127D34EC7711frame22" style="opacity:1;fill:#ffffff" stroke="#000000" points="21.392,11.064 23.954,8.502 26.347,10.895 23.786,13.455     24.729,15.732 28.353,15.732 28.353,19.115 24.731,19.115 23.788,21.392 26.351,23.955 23.958,26.347 21.397,23.786 19.12,24.729     19.12,28.353 15.737,28.353 15.737,24.731 13.46,23.788 10.897,26.35 8.506,23.958 11.066,21.397 10.124,19.12 6.5,19.12     6.5,15.737 10.121,15.737 11.065,13.461 8.503,10.898 10.895,8.506 13.455,11.066 15.732,10.125 15.732,6.5 19.116,6.5     19.116,10.121 "/> 		<circle oryx:anchors="top left" id="_6DFF9564-4E82-4CD7-880C-127D34EC7711frame23" style="opacity:1;fill:none;" stroke="#000000" cx="17.427" cy="17.426" r="3.714"/> 	</g> 	 	<g id="_6DFF9564-4E82-4CD7-880C-127D34EC7711sendTask" display="none"> 		<path id="_6DFF9564-4E82-4CD7-880C-127D34EC7711stframe24" oryx:anchors="left top" stroke="#FFFFFF" fill="black" stroke-width="1" d="M8,11 L8,21 L24,21 L24,11 L16,17z"/> 		<path id="_6DFF9564-4E82-4CD7-880C-127D34EC7711stframe25" oryx:anchors="left top" stroke="#FFFFFF" fill="black" stroke-width="1" d="M7,10 L16,17 L25 10z"/> 	</g> 	 	<g id="_6DFF9564-4E82-4CD7-880C-127D34EC7711receiveTask" display="none"> 		<path id="_6DFF9564-4E82-4CD7-880C-127D34EC7711frame26" oryx:anchors="left top" stroke="#000000" fill="none" stroke-width="1" d="M8,11 L8,21 L24,21 L24,11z M8,11 L16,17 L24,11"/> 	</g> 	 	<g id="_6DFF9564-4E82-4CD7-880C-127D34EC7711none" display="inherit"/>  	<g id="_6DFF9564-4E82-4CD7-880C-127D34EC7711sequential" display="none">         <path oryx:anchors="bottom" fill="none" stroke="#000000" stroke-width="2" d="M46,76h10M46,72h10 M46,68h10" id="_6DFF9564-4E82-4CD7-880C-127D34EC7711__6DFF9564-4E82-4CD7-880C-127D34EC7711_20"/>     </g>   </g></g><g class="children" style="overflow:hidden"/><g class="edge"/></g><g class="controls"><g class="dockers"/><g class="magnets" transform="translate(315, 240)"><g pointer-events="all" display="none" transform="translate(-7, 12)"><circle cx="8" cy="8" r="4" stroke="none" fill="red" fill-opacity="0.3"/></g><g pointer-events="all" display="none" transform="translate(-7, 32)"><circle cx="8" cy="8" r="4" stroke="none" fill="red" fill-opacity="0.3"/></g><g pointer-events="all" display="none" transform="translate(-7, 52)"><circle cx="8" cy="8" r="4" stroke="none" fill="red" fill-opacity="0.3"/></g><g pointer-events="all" display="none" transform="translate(17, 71)"><circle cx="8" cy="8" r="4" stroke="none" fill="red" fill-opacity="0.3"/></g><g pointer-events="all" display="none" transform="translate(42, 71)"><circle cx="8" cy="8" r="4" stroke="none" fill="red" fill-opacity="0.3"/></g><g pointer-events="all" display="none" transform="translate(67, 71)"><circle cx="8" cy="8" r="4" stroke="none" fill="red" fill-opacity="0.3"/></g><g pointer-events="all" display="none" transform="translate(91, 12)"><circle cx="8" cy="8" r="4" stroke="none" fill="red" fill-opacity="0.3"/></g><g pointer-events="all" display="none" transform="translate(91, 32)"><circle cx="8" cy="8" r="4" stroke="none" fill="red" fill-opacity="0.3"/></g><g pointer-events="all" display="none" transform="translate(91, 52)"><circle cx="8" cy="8" r="4" stroke="none" fill="red" fill-opacity="0.3"/></g><g pointer-events="all" display="none" transform="translate(17, -7)"><circle cx="8" cy="8" r="4" stroke="none" fill="red" fill-opacity="0.3"/></g><g pointer-events="all" display="none" transform="translate(42, -7)"><circle cx="8" cy="8" r="4" stroke="none" fill="red" fill-opacity="0.3"/></g><g pointer-events="all" display="none" transform="translate(67, -7)"><circle cx="8" cy="8" r="4" stroke="none" fill="red" fill-opacity="0.3"/></g><g pointer-events="all" display="none" transform="translate(42, 32)"><circle cx="8" cy="8" r="4" stroke="none" fill="red" fill-opacity="0.3"/></g></g></g></g><g id="_8C883A69-BD41-40F2-ACE4-C20B8CB6A2E8" bpmn2nodeid="_6C691E6B-4CE5-4611-AD7F-1E355742437B"><g class="stencils" transform="translate(510, 190)"><g class="me"><g id="_8C883A69-BD41-40F2-ACE4-C20B8CB6A2E8">        <defs id="_8C883A69-BD41-40F2-ACE4-C20B8CB6A2E8__8C883A69-BD41-40F2-ACE4-C20B8CB6A2E8_4"> 		<radialGradient id="_8C883A69-BD41-40F2-ACE4-C20B8CB6A2E8background" cx="10%" cy="10%" r="100%" fx="10%" fy="10%"> 			<stop offset="0%" stop-color="#ffffff" stop-opacity="1" id="_8C883A69-BD41-40F2-ACE4-C20B8CB6A2E8__8C883A69-BD41-40F2-ACE4-C20B8CB6A2E8_5"/> 			<stop id="_8C883A69-BD41-40F2-ACE4-C20B8CB6A2E8fill_el" offset="100%" stop-color="#f0e68c" stop-opacity="1"/> 		</radialGradient> 		<radialGradient id="_8C883A69-BD41-40F2-ACE4-C20B8CB6A2E8borderbackground" cx="10%" cy="10%" r="100%" fx="10%" fy="10%"> 			<stop offset="0%" stop-color="#ffffff" stop-opacity="1" id="_8C883A69-BD41-40F2-ACE4-C20B8CB6A2E8__8C883A69-BD41-40F2-ACE4-C20B8CB6A2E8_6"/> 			<stop id="_8C883A69-BD41-40F2-ACE4-C20B8CB6A2E8fill_border" offset="100%" stop-color="#a67f00" stop-opacity="1" stroke="#a67f00"/> 		</radialGradient> 	</defs> 	     <path d=" M0 20.5  L20.5 0  L40 20.5  L20.5 40  z" id="_8C883A69-BD41-40F2-ACE4-C20B8CB6A2E8bg_frame" fill="url(#_8C883A69-BD41-40F2-ACE4-C20B8CB6A2E8background) white" style="stroke-width:1" stroke="#a67f00"/>     <g id="_8C883A69-BD41-40F2-ACE4-C20B8CB6A2E8frame" stroke="#a67f00">       <path id="_8C883A69-BD41-40F2-ACE4-C20B8CB6A2E8frame2" d=" M13.25 12.05  L17.25 12.05  L27.65 28.95  L23.75 28.95  z" style="stroke-width:1" stroke="#a67f00" fill="url(#_8C883A69-BD41-40F2-ACE4-C20B8CB6A2E8borderbackground)"/>       <path id="_8C883A69-BD41-40F2-ACE4-C20B8CB6A2E8frame3" d=" M13.25 28.95  L23.75 12.05  L27.65 12.05  L17.25 28.95  z" style="stroke-width:1" stroke="#a67f00" fill="url(#_8C883A69-BD41-40F2-ACE4-C20B8CB6A2E8borderbackground)"/>     </g> 	 	<text id="_8C883A69-BD41-40F2-ACE4-C20B8CB6A2E8text_name" x="30.5" y="30.5" oryx:align="left top" stroke-width="0pt" letter-spacing="-0.01px" fill="#000000" text-anchor="start" transform="rotate(0 30.5 30.5)" visibility="inherit" oryx:fontSize="12"/> 	   </g></g><g class="children" style="overflow:hidden"/><g class="edge"/></g><g class="controls"><g class="dockers"/><g class="magnets" transform="translate(510, 190)"><g pointer-events="all" display="none" transform="translate(12.5, 12.5)"><circle cx="8" cy="8" r="4" stroke="none" fill="red" fill-opacity="0.3"/></g></g></g></g><g id="_D851A10E-17EE-4D7A-B634-29C4CCDA989B" bpmn2nodeid="_A9591430-BBF0-4713-8610-BFE85FA25837"><g class="stencils" transform="translate(600, 195)"><g class="me"><g pointer-events="fill" id="_D851A10E-17EE-4D7A-B634-29C4CCDA989B">       <defs id="_D851A10E-17EE-4D7A-B634-29C4CCDA989B__D851A10E-17EE-4D7A-B634-29C4CCDA989B_5"> 		<radialGradient id="_D851A10E-17EE-4D7A-B634-29C4CCDA989Bbackground" cx="10%" cy="10%" r="100%" fx="10%" fy="10%"> 			<stop offset="0%" stop-color="#ffffff" stop-opacity="1" id="_D851A10E-17EE-4D7A-B634-29C4CCDA989B__D851A10E-17EE-4D7A-B634-29C4CCDA989B_6"/> 			<stop id="_D851A10E-17EE-4D7A-B634-29C4CCDA989Bfill_el" offset="100%" stop-color="#ff6347" stop-opacity="1"/> 		</radialGradient> 		<radialGradient id="_D851A10E-17EE-4D7A-B634-29C4CCDA989Bborderbackground" cx="10%" cy="10%" r="100%" fx="10%" fy="10%"> 			<stop offset="0%" stop-color="#ffffff" stop-opacity="1" id="_D851A10E-17EE-4D7A-B634-29C4CCDA989B__D851A10E-17EE-4D7A-B634-29C4CCDA989B_7"/> 			<stop id="_D851A10E-17EE-4D7A-B634-29C4CCDA989Bfill_border" offset="100%" stop-color="#000000" stop-opacity="1" stroke="#000000"/> 		</radialGradient> 	</defs> 	     <circle id="_D851A10E-17EE-4D7A-B634-29C4CCDA989Bbg_frame" cx="14" cy="14" r="14" stroke="#000000" fill="url(#_D851A10E-17EE-4D7A-B634-29C4CCDA989Bbackground) white" stroke-width="3"/>          <circle id="_D851A10E-17EE-4D7A-B634-29C4CCDA989Bframe" cx="14" cy="14" r="9" stroke="#000000" fill="url(#_D851A10E-17EE-4D7A-B634-29C4CCDA989Bborderbackground)" stroke-width="1"/> 	<text font-size="11" id="_D851A10E-17EE-4D7A-B634-29C4CCDA989Btext_name" x="14" y="30" oryx:align="top center" stroke="black" stroke-width="0pt" letter-spacing="-0.01px" fill="#000000" text-anchor="middle" transform="rotate(0 14 30)" visibility="inherit" oryx:fontSize="11"/>   </g></g><g class="children" style="overflow:hidden"/><g class="edge"/></g><g class="controls"><g class="dockers"/><g class="magnets" transform="translate(600, 195)"><g pointer-events="all" display="none" transform="translate(6, 6)"><circle cx="8" cy="8" r="4" stroke="none" fill="red" fill-opacity="0.3"/></g></g></g></g><g id="_DC1785FB-51BC-42D1-B3B7-6A7E2F39BED5" bpmn2nodeid="_B312E386-678C-4ECB-B627-C7CD3A0B8EDE"><g class="stencils" transform="translate(195, 190)"><g class="me"><g id="_DC1785FB-51BC-42D1-B3B7-6A7E2F39BED5">      <defs id="_DC1785FB-51BC-42D1-B3B7-6A7E2F39BED5__DC1785FB-51BC-42D1-B3B7-6A7E2F39BED5_4"> 		<radialGradient id="_DC1785FB-51BC-42D1-B3B7-6A7E2F39BED5background" cx="10%" cy="10%" r="100%" fx="10%" fy="10%"> 			<stop offset="0%" stop-color="#ffffff" stop-opacity="1" id="_DC1785FB-51BC-42D1-B3B7-6A7E2F39BED5__DC1785FB-51BC-42D1-B3B7-6A7E2F39BED5_5"/> 			<stop id="_DC1785FB-51BC-42D1-B3B7-6A7E2F39BED5fill_el" offset="100%" stop-color="#f0e68c" stop-opacity="1"/> 		</radialGradient> 	</defs> 	     <path d=" M0 20.5  L20.5 0  L40 20.5  L20.5 40  z" id="_DC1785FB-51BC-42D1-B3B7-6A7E2F39BED5bg_frame" fill="url(#_DC1785FB-51BC-42D1-B3B7-6A7E2F39BED5background) white" style="stroke-width:1" stroke="#a67f00"/>     <circle id="_DC1785FB-51BC-42D1-B3B7-6A7E2F39BED5frame" cx="20.5" cy="20.5" r="9.75" style="fill:none;stroke-width:2.5" stroke="#a67f00"/>      	<text id="_DC1785FB-51BC-42D1-B3B7-6A7E2F39BED5text_name" x="30.5" y="30.5" oryx:align="left top" stroke-width="0pt" letter-spacing="-0.01px" fill="#000000" text-anchor="start" transform="rotate(0 30.5 30.5)" visibility="inherit" oryx:fontSize="12"/> 	   </g></g><g class="children" style="overflow:hidden"/><g class="edge"/></g><g class="controls"><g class="dockers"/><g class="magnets" transform="translate(195, 190)"><g pointer-events="all" display="none" transform="translate(12.5, 12.5)"><circle cx="8" cy="8" r="4" stroke="none" fill="red" fill-opacity="0.3"/></g></g></g></g></g><g class="edge"><g id="_19A9C496-044E-414E-B1F1-24B16EE8D6BA" bpmn2nodeid="_CAF91A68-1415-4A97-A68D-8D09E86A0CA5"><g class="stencils"><g class="me"><g pointer-events="painted" bpmn2nodeid="_7622C0EB-3E92-47B7-8F91-6E4C50364B07"><path id="_19A9C496-044E-414E-B1F1-24B16EE8D6BA_1" d="M150.375 210L195.25 210 " stroke="#000000" fill="none" stroke-width="2" stroke-linecap="round" stroke-linejoin="round" marker-start="url(#_19A9C496-044E-414E-B1F1-24B16EE8D6BAstart)" marker-end="url(#_19A9C496-044E-414E-B1F1-24B16EE8D6BAend)"/></g><text id="_19A9C496-044E-414E-B1F1-24B16EE8D6BAtext_name" font-size="12" x="164.375" y="196" oryx:edgePosition="startTop" stroke-width="0pt" letter-spacing="-0.01px" fill="#000000" text-anchor="start" transform="rotate(360 150.375 210)" visibility="inherit" oryx:fontSize="12"/></g><g class="children" style="overflow:hidden"/><g class="edge"/></g><g class="controls"><g class="dockers"/><g class="magnets"/></g></g><g id="_5BC44E84-A961-41EF-A256-75E234815337" bpmn2nodeid="_31C914CF-B805-445C-B68E-EF465E04F09C"><g class="stencils"><g class="me"><g pointer-events="painted" bpmn2nodeid="_A95B81A6-864C-4E6C-8ACD-FB31336F9709"><path id="_5BC44E84-A961-41EF-A256-75E234815337_1" d="M228.78505219099992 203.10747390450004L314.8868228090001 160.05658859549996 " stroke="#000000" fill="none" stroke-width="2" stroke-linecap="round" stroke-linejoin="round" marker-start="url(#_5BC44E84-A961-41EF-A256-75E234815337start)" marker-end="url(#_5BC44E84-A961-41EF-A256-75E234815337end)"/></g><text id="_5BC44E84-A961-41EF-A256-75E234815337text_name" font-size="12" x="242.78505219099992" y="189.10747390450004" oryx:edgePosition="startTop" stroke-width="0pt" letter-spacing="-0.01px" fill="#000000" text-anchor="start" transform="rotate(333.434948822922 228.78505219099992 203.10747390450004)" visibility="inherit" oryx:fontSize="12"/></g><g class="children" style="overflow:hidden"/><g class="edge"/></g><g class="controls"><g class="dockers"/><g class="magnets"/></g></g><g id="_95A38BDF-900A-4115-AEC6-5967F95EE48A" bpmn2nodeid="_7887CABC-A468-4BC6-8CE7-770216AB9AF0"><g class="stencils"><g class="me"><g pointer-events="painted" bpmn2nodeid="_5DF93CBA-A600-483C-9EAE-1A101CC99471"><path id="_95A38BDF-900A-4115-AEC6-5967F95EE48A_1" d="M229.38274563999528 216.71194796533112L314.8750668600047 256.60836453466885 " stroke="#000000" fill="none" stroke-width="2" stroke-linecap="round" stroke-linejoin="round" marker-start="url(#_95A38BDF-900A-4115-AEC6-5967F95EE48Astart)" marker-end="url(#_95A38BDF-900A-4115-AEC6-5967F95EE48Aend)"/></g><text id="_95A38BDF-900A-4115-AEC6-5967F95EE48Atext_name" font-size="12" x="243.38274563999528" y="202.71194796533112" oryx:edgePosition="startTop" stroke-width="0pt" letter-spacing="-0.01px" fill="#000000" text-anchor="start" transform="rotate(25.01689347810003 229.38274563999528 216.71194796533112)" visibility="inherit" oryx:fontSize="12"/></g><g class="children" style="overflow:hidden"/><g class="edge"/></g><g class="controls"><g class="dockers"/><g class="magnets"/></g></g><g id="_9E9238E2-9C46-4729-BE71-D263A7B91F8F" bpmn2nodeid="_027A015C-5B3D-4E0D-9146-17D2470B2778"><g class="stencils"><g class="me"><g pointer-events="painted" bpmn2nodeid="_78BC8560-1637-402D-B593-43240F95870B"><path id="_9E9238E2-9C46-4729-BE71-D263A7B91F8F_1" d="M415.5494880318753 258.5547626531438L514.8997307181247 216.40617484685617 " stroke="#000000" fill="none" stroke-width="2" stroke-linecap="round" stroke-linejoin="round" marker-start="url(#_9E9238E2-9C46-4729-BE71-D263A7B91F8Fstart)" marker-end="url(#_9E9238E2-9C46-4729-BE71-D263A7B91F8Fend)"/></g><text id="_9E9238E2-9C46-4729-BE71-D263A7B91F8Ftext_name" font-size="12" x="429.5494880318753" y="244.55476265314383" oryx:edgePosition="startTop" stroke-width="0pt" letter-spacing="-0.01px" fill="#000000" text-anchor="start" transform="rotate(337.01128319791934 415.5494880318753 258.5547626531438)" visibility="inherit" oryx:fontSize="12"/></g><g class="children" style="overflow:hidden"/><g class="edge"/></g><g class="controls"><g class="dockers"/><g class="magnets"/></g></g><g id="_FD305C42-AFD5-4BCD-B5FB-FDEFD09CB692" bpmn2nodeid="_129CA146-1740-4867-8CAF-383B46F2FE6E"><g class="stencils"><g class="me"><g pointer-events="painted" bpmn2nodeid="_2E8C840C-2EB5-48A7-A549-A69469471734"><path id="_FD305C42-AFD5-4BCD-B5FB-FDEFD09CB692_1" d="M415.5392727274626 157.97239669430118L516.1990085225374 203.72682205569882 " stroke="#000000" fill="none" stroke-width="2" stroke-linecap="round" stroke-linejoin="round" marker-start="url(#_FD305C42-AFD5-4BCD-B5FB-FDEFD09CB692start)" marker-end="url(#_FD305C42-AFD5-4BCD-B5FB-FDEFD09CB692end)"/></g><text id="_FD305C42-AFD5-4BCD-B5FB-FDEFD09CB692text_name" font-size="12" x="429.5392727274626" y="143.97239669430118" oryx:edgePosition="startTop" stroke-width="0pt" letter-spacing="-0.01px" fill="#000000" text-anchor="start" transform="rotate(24.44395478041656 415.5392727274626 157.97239669430118)" visibility="inherit" oryx:fontSize="12"/></g><g class="children" style="overflow:hidden"/><g class="edge"/></g><g class="controls"><g class="dockers"/><g class="magnets"/></g></g><g id="_45647243-0B6B-4C1B-B5CC-25C6D5C2EEB2" bpmn2nodeid="_59FFBBBE-B30B-4A8D-888A-2E493469CB76"><g class="stencils"><g class="me"><g pointer-events="painted" bpmn2nodeid="_82B3EC08-4FA7-4DBD-8537-44D5EC7E4074"><path id="_45647243-0B6B-4C1B-B5CC-25C6D5C2EEB2_1" d="M549.3749291458531 209.76934608159698L599.8750708541469 209.16815391840302 " stroke="#000000" fill="none" stroke-width="2" stroke-linecap="round" stroke-linejoin="round" marker-start="url(#_45647243-0B6B-4C1B-B5CC-25C6D5C2EEB2start)" marker-end="url(#_45647243-0B6B-4C1B-B5CC-25C6D5C2EEB2end)"/></g><text id="_45647243-0B6B-4C1B-B5CC-25C6D5C2EEB2text_name" font-size="12" x="563.3749291458531" y="195.76934608159698" oryx:edgePosition="startTop" stroke-width="0pt" letter-spacing="-0.01px" fill="#000000" text-anchor="start" transform="rotate(359.3179396068274 549.3749291458531 209.76934608159698)" visibility="inherit" oryx:fontSize="12"/></g><g class="children" style="overflow:hidden"/><g class="edge"/></g><g class="controls"><g class="dockers"/><g class="magnets"/></g></g></g><text id="_02264A5D-9F1E-4CE3-801B-2F147F96870B" style="stroke-width:1;fill:rgb(177,194,214);font-family:arial;font-weight:bold" font-size="12" onclick="ORYX.Plugins.CanvasTitle.openTextualAnalysis()" onmouseover="ORYX.Plugins.CanvasTitle.addToolTip('_02264A5D-9F1E-4CE3-801B-2F147F96870B')" transform="translate(10, 20)">ruleflow2 v.1.0 (RF2)</text></g></g></svg>